PathFileType	4	(X/Y/Z)	C:/Users/cmwille/Documents/OptiTrack/OpenSim_Lab5_04202021/group4_jump_2.trc
DataRate	CameraRate	NumFrames	NumMarkers	Units	OrigDataRate	OrigDataStartFrame	OrigNumFrames
200	200	9	39	m	200	630	841
Frame#	Time	L.ASIS			L.Acromium			L.Ankle.Lat			L.Ankle.Med			L.Heel			L.Knee.Lat			L.Knee.Med			L.Midfoot.Lat			L.Midfoot.Sup			L.Shank.Front			L.Shank.Rear			L.Shank.Upper			L.Thigh.Front			L.Thigh.Rear			L.Thigh.Upper			L.Toe.Lat			L.Toe.Med			L.Toe.Tip			R.ASIS			R.Acromium			R.Ankle.Lat			R.Ankle.Med			R.Heel			R.Knee.Lat			R.Knee.Med			R.Midfoot.Lat			R.Midfoot.Sup			R.Shank.Front			R.Shank.Rear			R.Shank.Upper			R.Thigh.Front			R.Thigh.Rear			R.Thigh.Upper			R.Toe.Lat			R.Toe.Med			R.Toe.Tip			Sternum			Top.Head			V.Sacral			
		X1	Y1	Z1	X2	Y2	Z2	X3	Y3	Z3	X4	Y4	Z4	X5	Y5	Z5	X6	Y6	Z6	X7	Y7	Z7	X8	Y8	Z8	X9	Y9	Z9	X10	Y10	Z10	X11	Y11	Z11	X12	Y12	Z12	X13	Y13	Z13	X14	Y14	Z14	X15	Y15	Z15	X16	Y16	Z16	X17	Y17	Z17	X18	Y18	Z18	X19	Y19	Z19	X20	Y20	Z20	X21	Y21	Z21	X22	Y22	Z22	X23	Y23	Z23	X24	Y24	Z24	X25	Y25	Z25	X26	Y26	Z26	X27	Y27	Z27	X28	Y28	Z28	X29	Y29	Z29	X30	Y30	Z30	X31	Y31	Z31	X32	Y32	Z32	X33	Y33	Z33	X34	Y34	Z34	X35	Y35	Z35	X36	Y36	Z36	X37	Y37	Z37	X38	Y38	Z38	X39	Y39	Z39
630	3.15	0.409182	0.898558	2.24921	0.450927	1.39783	2.30427	0.538393	0.121904	2.17891	0.425452	0.121907	2.19684	0.483042	0.0748608	2.0846	0.521302	0.472491	2.40644	0.387061	0.44714	2.4099	0.563077	0.0456589	2.21013	0.433028	0.0399193	2.24008	0.47582	0.376374	2.42151	0.518424	0.310357	2.35528	0.531679	0.422431	2.37298	0.525568	0.644179	2.32883	0.472796	0.488627	2.27667	0.470745	0.55225	2.22767	0.564887	0.0567865	2.31974	0.433808	0.0508305	2.31896	0.489504	0.0633075	2.38661	0.0973038	0.92758	2.20053	0.0436427	1.35123	2.30057	-0.0285849	0.132432	2.17134	0.0832035	0.124862	2.1965	0.0279794	0.0727792	2.07685	0.0088994	0.466824	2.4047	0.144727	0.464406	2.41569	-0.0629968	0.0323235	2.19117	0.0671452	0.0400786	2.23423	0.0542088	0.394778	2.41887	0.0201089	0.31211	2.3621	-0.00206031	0.419367	2.37476	0.02397	0.679247	2.34881	0.0195502	0.51875	2.28714	0.0300628	0.572786	2.23473	-0.0794764	0.0422741	2.27974	0.0569258	0.0448986	2.30793	-0.00476259	0.06733	2.38309	0.27083	1.15751	2.42723	0.311334	1.65579	2.55222	0.272797	0.933492	2.04224
631	3.155	0.4091	0.900723	2.24914	0.451045	1.40009	2.30336	0.53839	0.121446	2.17894	0.425485	0.121922	2.19656	0.483044	0.0747544	2.08451	0.521341	0.473712	2.40454	0.387187	0.447681	2.40775	0.563041	0.0455877	2.21009	0.432942	0.0400516	2.24	0.475923	0.377317	2.41992	0.518446	0.311148	2.35402	0.531588	0.423483	2.3713	0.52555	0.645619	2.3275	0.472819	0.490236	2.27494	0.470657	0.554037	2.22613	0.564869	0.056838	2.31972	0.4338	0.0509051	2.31891	0.489493	0.0634132	2.38655	0.0971567	0.929879	2.20108	0.0438812	1.35366	2.30018	-0.0287734	0.132301	2.17112	0.0830317	0.125015	2.19623	0.0278254	0.0726765	2.07676	0.00876214	0.467681	2.40318	0.144512	0.465517	2.41423	-0.0629328	0.033095	2.19142	0.0671661	0.0401858	2.23418	0.0542293	0.395879	2.41756	0.0200016	0.312981	2.36104	-0.00229974	0.420208	2.37342	0.0236641	0.680258	2.34817	0.0193756	0.520062	2.28576	0.0298474	0.574369	2.23364	-0.0795055	0.0422622	2.27976	0.0569352	0.0449515	2.30786	-0.00471178	0.0674367	2.38302	0.271146	1.15984	2.42646	0.31205	1.65846	2.55149	0.272372	0.935922	2.0425
632	3.16	0.409045	0.902985	2.24901	0.451191	1.40242	2.30248	0.538396	0.121389	2.17868	0.425511	0.12192	2.19635	0.483069	0.0746798	2.08445	0.521464	0.474947	2.40251	0.387291	0.448949	2.40611	0.563062	0.0455747	2.21005	0.43291	0.0401987	2.23992	0.476105	0.378603	2.41834	0.518445	0.31212	2.35274	0.531543	0.42463	2.36956	0.525373	0.646985	2.32627	0.472999	0.492274	2.27315	0.470456	0.555851	2.22458	0.564836	0.056879	2.31973	0.433787	0.0509735	2.31886	0.489478	0.0635065	2.38649	0.096985	0.932223	2.2017	0.0440808	1.35637	2.29971	-0.0289622	0.132225	2.17087	0.0831841	0.125291	2.19607	0.0277029	0.0725679	2.07667	0.00870978	0.468636	2.40162	0.144179	0.466435	2.41246	-0.0628711	0.0338631	2.19167	0.0671768	0.0402898	2.23409	0.0541549	0.396626	2.41603	0.0199394	0.313633	2.35993	-0.00244696	0.420975	2.37188	0.0233102	0.681201	2.34745	0.0192502	0.521315	2.28425	0.0297867	0.57585	2.23249	-0.0795183	0.0422515	2.27977	0.0569505	0.0450146	2.30779	-0.00466738	0.0675694	2.38294	0.27141	1.16226	2.42572	0.312758	1.66113	2.55067	0.271899	0.938521	2.04276
633	3.165	0.408983	0.905306	2.24887	0.451312	1.40477	2.30158	0.538406	0.121326	2.17847	0.425548	0.12196	2.19614	0.483083	0.0746071	2.08436	0.521514	0.476146	2.40048	0.387362	0.45026	2.40446	0.563078	0.0455722	2.21004	0.433047	0.0397302	2.24009	0.476341	0.380089	2.41663	0.51855	0.313123	2.35145	0.531559	0.425768	2.36767	0.525276	0.64863	2.32485	0.472721	0.493812	2.27115	0.470373	0.557925	2.22294	0.564811	0.0568094	2.31961	0.433758	0.0510244	2.31884	0.489452	0.0636127	2.38644	0.0967993	0.934583	2.20234	0.0443079	1.35909	2.29931	-0.0291553	0.132121	2.1706	0.0830569	0.125395	2.19584	0.0275638	0.0724666	2.07657	0.00867138	0.469499	2.4	0.143986	0.467682	2.41092	-0.062812	0.0346249	2.19192	0.0671505	0.040395	2.23401	0.0540991	0.39766	2.41445	0.0198029	0.314504	2.35886	-0.00256553	0.421897	2.37037	0.0229324	0.682105	2.34672	0.0192655	0.522442	2.28274	0.0296937	0.577244	2.23124	-0.0795382	0.0422408	2.27977	0.0569624	0.0450913	2.30771	-0.00458549	0.0676983	2.38286	0.27166	1.16481	2.42491	0.313431	1.66399	2.54985	0.271505	0.941061	2.043
634	3.17	0.408963	0.907667	2.24877	0.451491	1.40727	2.3007	0.538416	0.121273	2.17824	0.425603	0.121967	2.19594	0.483101	0.0745352	2.08427	0.521435	0.477389	2.39838	0.387468	0.451684	2.40291	0.563097	0.0455727	2.21002	0.433026	0.0397716	2.24002	0.476461	0.381275	2.41492	0.51854	0.314117	2.34999	0.531559	0.426838	2.36564	0.525239	0.650329	2.32348	0.472637	0.495545	2.26934	0.470182	0.559852	2.22136	0.564814	0.0568562	2.31956	0.433747	0.0510539	2.31881	0.489425	0.0637212	2.38637	0.0966799	0.936694	2.20239	0.0445185	1.36196	2.29884	-0.0293441	0.132066	2.17035	0.0829069	0.125496	2.19563	0.027458	0.07237	2.07646	0.00858875	0.470392	2.39834	0.143725	0.468785	2.40924	-0.0627559	0.0353773	2.19217	0.0671227	0.0405644	2.23397	0.0540104	0.398733	2.41292	0.0197366	0.315382	2.35767	-0.00261441	0.422782	2.36866	0.0225428	0.683023	2.34592	0.0192002	0.523392	2.28128	0.0296416	0.578892	2.22989	-0.0795533	0.0422273	2.27973	0.056981	0.0451651	2.30764	-0.00450876	0.0678154	2.38277	0.271925	1.16736	2.42412	0.314093	1.66688	2.54895	0.270945	0.94373	2.04332
635	3.175	0.408944	0.910063	2.2486	0.451666	1.4098	2.2999	0.538413	0.121178	2.17804	0.425635	0.121944	2.19571	0.483134	0.0744439	2.08421	0.521498	0.478688	2.39624	0.387549	0.453032	2.40118	0.563106	0.0455886	2.20999	0.43303	0.039828	2.23994	0.476544	0.382666	2.41328	0.518701	0.315235	2.34868	0.531632	0.427939	2.3636	0.525152	0.651901	2.32215	0.472407	0.497213	2.26758	0.469939	0.561913	2.21975	0.564808	0.0568476	2.31948	0.433748	0.0511042	2.31878	0.48941	0.0638448	2.3863	0.0965996	0.938846	2.20233	0.0447932	1.36486	2.29844	-0.0295049	0.132033	2.17013	0.0827433	0.12557	2.19541	0.0273091	0.0722237	2.07632	0.00848974	0.471305	2.39666	0.143387	0.469851	2.40743	-0.062703	0.0361174	2.1924	0.0670545	0.0406436	2.23388	0.0539442	0.399877	2.41136	0.0195906	0.316228	2.35661	-0.00288221	0.423811	2.36709	0.0220837	0.683996	2.34515	0.0191837	0.524629	2.27968	0.0297427	0.580498	2.22849	-0.079543	0.0422212	2.27973	0.0569823	0.0452573	2.30756	-0.00447569	0.0680039	2.38267	0.272211	1.17011	2.42333	0.314777	1.66991	2.54803	0.270432	0.946503	2.04359
636	3.18	0.408918	0.912569	2.24853	0.451771	1.41244	2.29906	0.538449	0.121147	2.1778	0.425692	0.121983	2.19541	0.483182	0.0743594	2.08415	0.521514	0.47996	2.39414	0.387525	0.454006	2.39916	0.563137	0.0455936	2.20999	0.433028	0.039952	2.23983	0.476531	0.383752	2.41143	0.518808	0.316215	2.34718	0.531645	0.429156	2.36156	0.524875	0.653437	2.32092	0.472393	0.499212	2.26561	0.46967	0.563846	2.21817	0.564821	0.0568676	2.31945	0.43374	0.0511848	2.31873	0.489368	0.0639829	2.38621	0.0964845	0.941154	2.20283	0.045019	1.36789	2.29793	-0.0296399	0.131964	2.16993	0.0826027	0.125722	2.1952	0.0272036	0.0721379	2.07623	0.00847103	0.472386	2.39498	0.143332	0.470897	2.40592	-0.0626538	0.0368421	2.19264	0.0670124	0.0407283	2.23379	0.05388	0.401053	2.40969	0.0194912	0.3172	2.35533	-0.0029902	0.424762	2.36535	0.0216423	0.685013	2.34432	0.0192633	0.525868	2.27806	0.0298538	0.582063	2.22708	-0.0795453	0.0422287	2.27976	0.0569918	0.0453326	2.30751	-0.00442288	0.0681432	2.38258	0.272488	1.17287	2.42264	0.315391	1.67294	2.54709	0.269915	0.949271	2.04396
637	3.185	0.408879	0.915146	2.24853	0.451917	1.41509	2.29819	0.538473	0.121139	2.17756	0.425822	0.122127	2.19515	0.483229	0.0742958	2.08407	0.521468	0.481276	2.39199	0.387618	0.45509	2.3972	0.563141	0.0455703	2.20995	0.432488	0.0416115	2.23917	0.476637	0.384845	2.40962	0.519	0.317256	2.34571	0.531483	0.430423	2.35943	0.524825	0.655051	2.31968	0.47228	0.501173	2.26355	0.469356	0.565876	2.21654	0.564796	0.0568399	2.31936	0.433734	0.0512947	2.31868	0.489335	0.06415	2.38613	0.0963621	0.943492	2.2032	0.0451825	1.37108	2.29744	-0.0297682	0.131927	2.1697	0.0824494	0.125792	2.19491	0.0270542	0.0719775	2.0761	0.00842224	0.473383	2.39312	0.142979	0.471976	2.40411	-0.0626085	0.0375485	2.19286	0.0669856	0.0408359	2.23373	0.0537602	0.402063	2.40792	0.0193866	0.318115	2.35417	-0.00304557	0.425804	2.36368	0.0212573	0.68604	2.34342	0.019301	0.527178	2.2764	0.0298775	0.583826	2.22577	-0.0795739	0.0422109	2.27973	0.0570272	0.0454001	2.30745	-0.00436619	0.0683006	2.38249	0.272762	1.17582	2.42197	0.316026	1.67606	2.54607	0.269469	0.95209	2.04439
638	3.19	0.408812	0.917759	2.24854	0.452013	1.41784	2.29731	0.538317	0.121139	2.17704	0.425873	0.122129	2.19494	0.483278	0.0742168	2.08398	0.521422	0.482524	2.38977	0.387644	0.456121	2.39517	0.563174	0.0455819	2.20995	0.432616	0.0417668	2.23885	0.476673	0.386163	2.40783	0.519167	0.318476	2.34426	0.53142	0.431664	2.35728	0.524739	0.656611	2.31821	0.471981	0.502903	2.2616	0.469121	0.567968	2.21487	0.56479	0.0568533	2.3193	0.433706	0.0514854	2.31866	0.489307	0.0643005	2.38603	0.0962638	0.946	2.20373	0.0454627	1.37422	2.29694	-0.029874	0.131858	2.16946	0.0822841	0.125896	2.19468	0.0269447	0.0718581	2.07599	0.00830534	0.474425	2.39126	0.142705	0.473157	2.40234	-0.0625676	0.0382336	2.19308	0.0669657	0.0409505	2.23362	0.0537402	0.403261	2.40617	0.0193115	0.319096	2.35295	-0.00307074	0.426798	2.36192	0.0209548	0.687116	2.34259	0.0193513	0.528609	2.27472	0.0299744	0.585568	2.22435	-0.0795667	0.0422542	2.27972	0.0570245	0.0455002	2.30739	-0.00431068	0.0684622	2.38238	0.273005	1.17882	2.42138	0.31667	1.67926	2.545	0.268954	0.954995	2.04477
